<svg xmlns="http://www.w3.org/2000/svg" width="1024" height="1024" viewBox="0 0 1024 1024">
<g>
<path d="M 445.85 764.36 C439.56,765.02 426.45,764.97 419.75,764.27 L 416.00 763.88 L 416.00 741.19 L 416.00 718.50 L 435.00 699.55 L 454.00 680.59 L 454.02 650.55 C454.03,634.02 454.32,616.55 454.66,611.73 L 455.28 602.96 L 415.52 603.02 C393.65,603.06 375.66,602.96 375.54,602.79 C375.42,602.63 373.38,595.19 370.99,586.25 L 366.66 570.00 L 311.50 570.01 L 273.53 608.00 L 260.00 608.00 L 260.00 572.43 L 266.75 572.81 C277.04,573.39 278.85,572.54 289.40,562.20 L 298.89 552.91 L 329.46 552.83 C346.28,552.79 360.23,552.44 360.47,552.05 C360.71,551.66 360.01,548.34 358.91,544.67 L 356.91 538.00 L 330.70 537.81 C316.29,537.71 302.11,537.58 299.19,537.53 C294.04,537.43 293.73,537.59 289.23,542.46 C286.67,545.23 282.15,549.66 279.18,552.29 L 273.78 557.09 L 267.14 556.79 L 260.50 556.50 L 259.95 520.00 L 305.48 520.00 C310.27,520.00 314.58,520.01 318.45,520.02 C342.76,520.07 349.73,520.08 350.81,517.57 C351.25,516.56 350.73,515.14 350.01,513.14 C349.72,512.36 349.40,511.48 349.10,510.50 L 347.23 504.50 L 303.61 504.24 L 260.00 503.98 L 260.00 468.00 L 275.26 468.00 L 295.05 487.00 L 318.53 487.00 C331.44,487.00 342.00,486.73 342.00,486.41 C342.00,486.08 341.06,482.70 339.90,478.91 L 337.81 472.00 L 301.30 472.00 L 297.40 469.11 C295.26,467.52 290.36,463.02 286.53,459.11 L 279.55 452.00 L 273.53 451.99 C270.21,451.98 265.81,451.70 263.75,451.36 L 260.00 450.74 L 260.00 416.00 L 273.52 416.00 L 311.48 454.00 L 332.73 454.00 L 330.97 447.75 C329.25,441.68 328.67,439.39 327.23,438.52 C326.35,437.99 325.16,438.00 323.20,438.00 C323.03,438.00 322.85,438.00 322.67,438.00 L 317.56 438.00 L 297.97 418.50 L 278.38 399.00 L 273.45 399.58 C270.74,399.89 266.61,399.87 264.26,399.52 L 260.00 398.88 L 260.00 334.97 C260.00,332.90 260.00,330.90 260.00,328.95 C259.99,275.02 259.99,267.23 263.85,263.86 C264.65,263.17 265.60,262.66 266.75,261.99 C269.99,260.07 271.88,260.01 318.81,260.16 C345.59,260.25 366.04,260.50 364.25,260.72 C362.46,260.95 361.00,261.50 361.00,261.95 C361.00,262.41 359.40,263.08 357.45,263.44 C353.13,264.25 352.05,266.47 354.75,268.98 C356.69,270.79 356.70,271.04 355.12,277.72 C354.23,281.50 352.71,285.80 351.75,287.26 C349.92,290.06 349.42,301.79 350.92,307.00 C351.35,308.49 351.07,310.88 350.23,312.92 C349.19,315.46 349.10,316.93 349.89,318.66 C351.05,321.21 350.31,327.00 348.82,327.00 C348.30,327.00 348.14,327.42 348.46,327.93 C348.77,328.44 348.53,329.17 347.91,329.56 C347.29,329.94 347.17,330.54 347.64,330.89 C348.11,331.24 349.85,333.02 351.50,334.83 C353.45,336.98 353.88,337.89 352.74,337.45 C351.34,336.92 351.11,337.16 351.62,338.64 C351.97,339.66 347.84,336.14 342.44,330.81 L 332.63 321.11 L 332.56 312.64 C332.51,304.90 332.24,303.80 329.49,299.84 C321.32,288.09 303.84,288.08 295.56,299.82 C289.20,308.86 291.87,322.58 301.20,328.75 C304.90,331.19 306.29,331.50 313.68,331.51 L 321.99 331.52 L 337.55 347.01 C352.65,362.05 356.60,366.55 353.72,365.45 C350.66,364.27 348.10,373.96 346.46,392.91 C346.20,395.88 345.54,398.86 344.98,399.52 C344.43,400.18 343.80,404.62 343.59,409.38 C343.23,417.40 343.35,418.13 345.35,419.27 C346.96,420.19 361.27,420.58 402.62,420.82 L 457.75 421.13 L 457.22 418.35 C456.74,415.86 456.60,415.77 455.91,417.53 C455.49,418.61 455.18,411.62 455.24,402.00 C455.29,392.38 455.51,386.20 455.73,388.27 C455.95,390.34 456.55,391.78 457.06,391.46 C457.58,391.14 458.00,391.58 458.00,392.44 C458.00,393.30 458.40,394.00 458.89,394.00 C459.39,394.00 461.17,395.29 462.86,396.87 C465.64,399.47 466.12,399.60 467.97,398.31 C469.51,397.23 470.05,395.63 470.21,391.69 C470.33,388.84 470.67,394.15 470.96,403.50 L 471.50 420.50 L 479.20 420.79 L 486.90 421.08 L 487.20 414.79 L 487.50 408.50 L 491.14 412.40 C493.84,415.28 495.33,416.15 496.89,415.74 C498.05,415.44 499.00,415.56 499.00,416.03 C499.00,416.49 499.90,417.15 501.00,417.50 C502.26,417.90 503.00,419.01 503.00,420.52 C503.00,422.43 503.76,423.12 506.75,423.95 C512.17,425.45 513.78,425.25 514.50,423.00 C514.90,421.73 516.01,421.00 517.54,421.00 C519.92,421.00 519.94,420.91 520.22,409.25 L 520.50 397.50 L 524.00 401.13 C525.93,403.13 528.41,404.93 529.50,405.14 C530.60,405.35 531.50,406.20 531.50,407.01 C531.50,407.83 531.75,408.73 532.05,409.00 C534.23,410.99 537.00,416.25 537.00,418.40 C537.00,420.98 537.05,421.00 545.00,421.00 L 553.00 421.00 L 553.00 408.93 C553.00,397.80 553.13,396.98 554.62,398.48 C556.11,399.97 556.44,399.86 558.76,397.05 C560.15,395.37 561.87,394.00 562.57,394.00 C564.38,394.00 566.98,399.64 567.13,403.90 L 567.26 407.50 L 568.00 404.00 C568.57,401.28 568.77,402.23 568.87,408.31 C568.95,413.29 568.64,415.89 568.00,415.50 C566.82,414.77 566.68,417.95 567.81,419.73 C568.40,420.66 577.00,421.05 602.55,421.28 C633.89,421.57 637.11,421.76 644.50,423.80 C658.20,427.57 666.44,432.28 675.67,441.64 C680.16,446.20 684.13,450.84 684.49,451.96 C685.10,453.88 685.93,454.00 698.97,454.00 L 712.81 454.00 L 731.71 435.00 L 750.62 416.00 L 764.00 416.00 L 764.00 451.00 L 745.14 451.00 L 734.82 460.96 L 724.50 470.92 L 708.81 470.96 C700.18,470.98 692.93,471.34 692.69,471.75 C692.46,472.16 692.72,475.76 693.27,479.75 L 694.28 487.00 L 729.54 487.00 L 748.46 468.00 L 763.91 468.00 L 764.21 486.00 L 764.50 504.00 L 728.25 504.00 C693.69,504.00 692.00,504.09 692.00,505.84 C692.00,506.86 691.10,510.30 690.00,513.50 C688.90,516.70 688.00,519.47 688.00,519.66 C688.00,519.85 705.10,520.00 726.00,520.00 L 764.00 520.00 L 764.00 556.00 L 748.88 556.00 L 739.19 546.51 L 729.50 537.02 L 675.78 537.00 L 671.14 540.88 C668.59,543.02 663.80,546.39 660.50,548.38 L 654.50 551.99 L 689.31 552.00 L 724.13 552.00 L 734.31 561.91 L 744.50 571.82 L 763.99 572.50 L 763.99 589.67 C764.00,602.46 764.32,606.96 765.25,607.34 C765.94,607.62 762.94,607.88 758.60,607.92 L 750.69 608.00 L 713.15 570.00 L 607.00 570.00 L 607.00 602.96 L 588.34 603.23 L 569.69 603.50 L 569.90 642.00 L 570.10 680.50 L 589.05 699.51 L 608.00 718.52 L 608.00 763.78 L 596.81 764.16 C590.66,764.37 582.56,764.37 578.81,764.16 L 572.00 763.77 L 571.96 738.14 L 571.92 712.50 L 553.02 692.65 L 552.76 648.08 L 552.50 603.50 L 537.50 603.50 L 537.24 650.40 L 536.98 697.30 L 546.99 707.59 L 557.00 717.87 L 556.93 739.69 C556.89,751.68 556.55,762.17 556.18,763.00 C555.38,764.76 539.35,765.58 527.25,764.49 L 520.00 763.83 L 520.00 603.00 L 504.00 603.00 L 504.00 763.83 L 496.64 764.52 C492.59,764.90 484.37,764.99 478.39,764.72 L 467.50 764.22 L 467.41 743.72 C467.36,732.45 467.53,721.78 467.79,720.00 C468.14,717.62 470.71,714.23 477.63,707.02 L 487.00 697.26 L 487.00 603.00 L 471.00 603.00 L 471.00 692.75 L 461.54 702.62 L 452.07 712.50 L 452.04 738.11 L 452.00 763.72 ZM 396.38 583.33 C403.49,583.91 422.85,583.49 423.61,582.73 C424.38,581.95 444.21,509.97 447.57,495.75 C448.50,491.81 449.75,492.35 451.03,497.25 C453.35,506.10 464.03,545.24 468.98,563.00 C471.82,573.17 474.58,581.95 475.12,582.50 C475.69,583.08 482.64,583.50 491.75,583.50 L 507.40 583.50 L 522.62 530.50 C530.99,501.35 538.35,475.81 538.96,473.75 L 540.08 470.00 L 583.29 470.02 C623.16,470.04 626.81,470.19 630.50,471.89 C637.99,475.35 641.00,480.42 641.00,489.61 C641.00,498.90 635.94,506.05 627.61,508.52 C624.06,509.58 617.68,510.00 605.32,510.00 L 588.00 510.00 L 588.00 488.00 L 555.00 488.00 L 555.00 582.87 L 557.15 583.55 C558.34,583.92 565.42,584.07 572.90,583.87 C585.45,583.53 586.55,583.34 587.15,581.50 C587.51,580.40 587.85,570.16 587.90,558.75 L 588.00 538.00 L 609.25 537.96 C623.61,537.94 632.35,537.49 636.20,536.57 C645.89,534.25 655.27,529.31 660.71,523.66 C670.67,513.32 674.53,502.37 673.76,486.65 C672.63,463.53 660.89,448.42 639.76,442.87 C633.19,441.14 628.06,441.00 573.36,441.00 L 514.09 441.00 L 513.20 444.25 C512.71,446.04 507.40,466.94 501.41,490.71 C495.42,514.47 490.23,533.60 489.87,533.21 C489.52,532.82 486.44,521.70 483.04,508.50 C481.93,504.21 480.90,500.19 479.92,496.42 C466.53,444.50 465.51,440.53 464.95,440.59 C464.86,440.60 464.79,440.71 464.68,440.75 C464.31,440.89 457.04,441.00 448.53,441.00 L 433.06 441.00 L 431.58 446.25 C430.76,449.14 427.18,462.98 423.60,477.00 C420.03,491.02 415.44,509.02 413.41,517.00 C411.37,524.97 409.35,531.90 408.92,532.38 C407.91,533.51 405.87,525.92 387.84,454.25 L 384.51 441.00 L 367.19 441.00 C350.32,441.00 349.88,441.05 350.50,443.00 C350.85,444.10 353.54,453.44 356.47,463.75 C365.48,495.38 381.83,551.67 386.67,567.70 L 391.26 582.90 ZM 756.67 762.77 C753.77,764.35 748.60,764.50 695.50,764.55 C663.60,764.59 634.58,764.45 631.00,764.27 L 624.50 763.92 L 624.81 739.52 L 625.12 715.11 L 617.15 706.31 C612.77,701.46 604.42,692.78 598.59,687.02 C589.38,677.90 588.00,676.10 588.00,673.23 C588.00,665.91 594.64,657.64 604.00,653.31 C607.03,651.91 610.27,650.09 611.21,649.26 C612.15,648.44 613.50,648.06 614.21,648.43 C616.18,649.45 622.18,653.18 626.97,656.35 C631.53,659.37 638.41,660.30 644.51,658.72 C647.40,657.98 648.38,658.79 669.51,679.50 L 691.50 701.05 L 691.50 709.94 C691.50,718.20 691.71,719.12 694.50,723.08 C700.35,731.40 712.16,734.51 720.91,730.04 C739.80,720.41 732.59,691.61 711.35,691.86 C708.30,691.90 705.05,692.17 704.12,692.46 C702.91,692.85 696.18,686.71 680.28,670.75 L 658.13 648.50 L 658.69 642.40 C659.31,635.60 658.05,630.57 654.30,624.89 C651.08,620.01 650.14,614.10 652.33,612.50 C653.24,611.84 654.63,609.74 655.42,607.84 C657.72,602.34 669.84,590.36 674.00,589.49 C675.92,589.08 678.39,588.13 679.47,587.37 C680.89,586.39 684.97,586.00 693.97,586.00 L 706.50 586.01 L 746.13 625.14 L 754.96 624.82 L 763.79 624.50 L 764.48 648.50 C764.85,661.70 765.01,690.95 764.83,713.50 L 764.50 754.50 L 762.17 757.77 C760.89,759.56 758.42,761.81 756.67,762.77 ZM 399.39 764.13 C396.60,764.55 292.35,764.44 281.50,764.01 C267.15,763.45 265.33,762.80 261.69,757.00 C259.65,753.74 259.51,752.42 259.70,738.00 C259.82,729.47 259.93,700.56 259.95,673.75 L 260.00 625.00 L 278.39 625.00 L 317.56 586.00 L 347.11 586.00 L 353.99 591.49 C361.78,597.71 364.00,600.43 364.00,603.76 C364.00,605.03 364.77,607.25 365.71,608.68 C366.65,610.12 367.54,612.10 367.70,613.09 C367.85,614.08 368.59,616.69 369.36,618.91 C370.65,622.67 370.58,623.27 368.20,628.21 C366.10,632.57 365.68,634.82 365.81,641.03 L 365.96 648.56 L 343.69 670.81 L 321.42 693.06 L 316.46 691.92 C300.84,688.33 287.29,704.79 293.55,719.77 C300.51,736.43 324.49,736.43 331.45,719.77 C333.20,715.59 333.46,709.35 332.05,705.64 C331.17,703.32 332.63,701.65 353.63,680.83 C370.95,663.67 376.66,658.57 378.33,658.80 C388.48,660.19 395.37,658.63 400.75,653.71 C402.09,652.48 403.00,652.15 403.00,652.88 C403.00,653.56 403.43,653.85 403.95,653.53 C404.47,653.21 408.63,654.45 413.20,656.30 C428.41,662.44 432.87,666.57 433.30,674.92 C433.49,678.59 432.85,679.40 416.17,696.48 L 398.84 714.23 L 399.56 739.12 C399.98,753.56 399.91,764.06 399.39,764.13 ZM 745.48 399.00 L 706.52 438.00 L 697.26 438.00 C688.78,438.00 688.00,437.84 688.00,436.07 C688.00,435.01 687.39,433.53 686.63,432.78 C685.88,432.02 685.04,429.85 684.76,427.95 C684.47,426.05 683.49,422.02 682.58,419.00 C681.66,415.98 680.71,410.30 680.46,406.39 C680.21,402.49 679.11,396.47 678.00,393.01 C676.90,389.56 675.99,384.44 675.98,381.62 C675.97,377.44 675.50,376.05 673.42,374.08 C670.87,371.66 670.80,370.83 672.65,364.62 C673.07,363.25 672.85,362.95 671.86,363.52 C671.11,363.94 672.50,362.21 674.94,359.67 C677.38,357.12 679.58,355.25 679.83,355.49 C680.08,355.74 681.52,354.05 683.03,351.72 C684.53,349.40 689.63,343.71 694.34,339.07 L 702.91 330.64 L 707.85 331.78 C718.08,334.14 728.43,327.92 731.53,317.55 C736.62,300.51 719.22,285.39 703.36,293.07 C694.34,297.43 689.96,305.97 691.71,315.74 L 692.65 320.98 L 688.08 325.41 C678.80,334.40 672.66,339.49 673.35,337.61 C673.92,336.06 673.79,335.93 672.63,336.89 C671.85,337.54 670.83,338.00 670.36,337.92 C667.15,337.34 665.99,338.10 666.56,340.39 C666.91,341.77 666.66,343.09 665.97,343.52 C665.06,344.08 665.07,344.42 666.00,345.00 C666.74,345.45 666.21,345.75 664.67,345.75 C660.72,345.75 660.12,340.84 663.79,338.63 C664.72,338.08 664.86,337.53 664.19,337.12 C662.88,336.31 661.96,307.40 663.15,304.18 C663.64,302.83 663.60,301.13 663.04,300.08 C661.69,297.56 659.00,284.18 659.00,279.97 C659.00,278.03 659.70,275.45 660.54,274.24 C661.83,272.41 661.88,271.65 660.82,269.77 C660.12,268.52 659.51,266.26 659.46,264.75 C659.38,262.21 659.68,261.99 663.44,261.88 C667.33,261.77 667.37,261.73 664.50,261.00 C662.85,260.58 682.69,260.18 708.58,260.12 L 755.67 260.00 L 759.24 263.25 C761.20,265.04 763.30,268.03 763.91,269.90 C765.17,273.82 765.34,310.45 764.34,363.75 L 763.68 399.00 ZM 768.00 809.13 C761.56,811.41 760.95,811.44 705.47,811.77 C674.65,811.95 649.12,811.78 648.72,811.39 C648.32,810.99 648.00,805.68 648.00,799.58 L 648.00 788.50 L 703.25 788.39 L 758.50 788.28 L 764.32 785.81 C772.38,782.38 781.42,773.42 785.24,765.06 L 788.19 758.62 L 788.35 703.31 L 788.50 648.01 L 800.31 648.00 L 812.12 648.00 L 811.78 704.25 C811.44,759.82 811.40,760.58 809.13,767.50 C802.41,787.92 788.67,801.82 768.00,809.13 ZM 811.76 320.25 L 812.12 376.00 L 789.00 376.00 L 789.00 323.71 C789.00,279.84 788.75,270.46 787.46,265.46 C784.48,253.95 776.50,243.96 766.22,238.84 L 761.50 236.50 L 648.50 235.50 L 648.22 224.25 L 647.93 213.00 L 704.41 213.00 C752.62,213.00 762.53,213.00 771.16,216.32 C773.44,217.19 775.63,218.30 778.41,219.70 C788.13,224.59 799.45,235.95 804.38,245.75 C811.51,259.93 811.35,258.34 811.76,320.25 ZM 235.87 321.75 L 235.90 376.00 L 213.00 376.00 L 213.01 321.25 C213.03,260.89 213.14,259.57 219.26,247.29 C226.32,233.09 239.10,221.67 254.02,216.23 L 261.50 213.50 L 376.00 212.94 L 376.00 236.00 L 321.04 236.00 C267.78,236.00 265.90,236.06 260.50,238.08 C253.93,240.54 243.88,249.35 240.84,255.32 C239.88,257.19 239.11,258.66 238.48,260.20 C235.83,266.69 235.84,274.26 235.87,318.10 ZM 375.50 788.99 L 376.06 812.00 L 322.78 811.85 C293.48,811.77 268.15,811.52 266.50,811.30 C247.72,808.81 228.11,794.84 219.74,778.00 C218.31,775.11 217.17,772.84 216.28,770.49 C213.00,761.81 213.00,751.89 213.00,704.34 L 213.00 648.00 L 234.91 648.00 L 235.26 703.25 C235.63,761.59 235.48,759.73 240.27,768.66 C243.39,774.50 251.70,781.98 258.74,785.31 L 265.50 788.50 ZM 717.50 716.82 C712.42,722.86 704.00,719.77 704.00,711.86 C704.00,702.35 717.71,701.22 719.57,710.57 C720.05,712.98 719.61,714.31 717.50,716.82 ZM 717.08 317.08 C713.30,320.85 710.72,320.76 706.25,316.70 C701.35,312.24 705.08,304.00 712.00,304.00 C714.97,304.00 716.33,304.60 717.93,306.63 C720.80,310.29 720.53,313.63 717.08,317.08 ZM 317.37 717.93 C313.87,720.68 310.45,720.55 307.45,717.55 C302.43,712.52 305.69,704.00 312.64,704.00 C319.49,704.00 322.77,713.68 317.37,717.93 ZM 318.25 316.80 C315.84,319.59 313.06,320.15 309.40,318.56 C306.04,317.11 305.00,315.35 305.00,311.09 C305.00,305.07 313.67,301.67 318.00,306.00 C320.50,308.50 320.63,314.05 318.25,316.80 ZM 643.93 643.37 C639.84,648.56 631.00,645.36 631.00,638.69 C631.00,637.21 631.34,636.09 631.75,636.21 C632.16,636.32 633.89,635.67 635.60,634.76 C643.05,630.78 649.00,636.92 643.93,643.37 ZM 388.78 645.44 C386.23,647.23 385.35,647.28 382.32,645.81 C378.34,643.89 376.58,636.01 380.00,635.44 C380.83,635.30 382.22,634.90 383.10,634.55 C384.18,634.11 385.73,635.07 387.85,637.48 C391.58,641.73 391.77,643.35 388.78,645.44 ZM 504.00 407.31 C504.00,409.89 503.89,411.96 503.75,411.92 C500.58,410.92 500.07,407.82 502.53,404.56 C503.89,402.76 504.00,402.97 504.00,407.31 ZM 347.92 334.36 C349.25,335.81 350.53,336.80 350.77,336.56 C351.49,335.85 350.01,334.08 347.69,332.87 C345.60,331.78 345.61,331.85 347.92,334.36 ZM 554.07 412.25 C554.03,413.76 554.45,415.00 555.00,415.00 C556.17,415.00 556.17,414.23 555.00,411.50 C554.24,409.73 554.13,409.81 554.07,412.25 Z" fill="rgb(24,70,98)"/>
<path d="M 445.85 764.36 L 452.00 763.72 L 452.04 738.11 L 452.07 712.50 L 461.54 702.62 L 471.00 692.75 L 471.00 603.00 L 487.00 603.00 L 487.00 697.26 L 477.63 707.02 C470.71,714.23 468.14,717.62 467.79,720.00 C467.53,721.78 467.36,732.45 467.41,743.72 L 467.50 764.22 L 478.39 764.72 C484.37,764.99 492.59,764.90 496.64,764.52 L 504.00 763.83 L 504.00 603.00 L 520.00 603.00 L 520.00 763.83 L 527.25 764.49 C539.35,765.58 555.38,764.76 556.18,763.00 C556.55,762.17 556.89,751.68 556.93,739.69 L 557.00 717.87 L 546.99 707.59 L 536.98 697.30 L 537.24 650.40 L 537.50 603.50 L 552.50 603.50 L 552.76 648.08 L 553.02 692.65 L 571.92 712.50 L 571.96 738.14 L 572.00 763.77 L 578.81 764.16 C582.56,764.37 590.66,764.37 596.81,764.16 L 608.00 763.78 L 608.00 718.52 L 589.05 699.51 L 570.10 680.50 L 569.90 642.00 L 569.69 603.50 L 588.34 603.23 L 607.00 602.96 L 607.00 570.00 L 713.15 570.00 L 750.69 608.00 L 758.60 607.92 C762.94,607.88 765.94,607.62 765.25,607.34 C764.32,606.96 764.00,602.46 763.99,589.67 L 763.99 572.50 L 744.50 571.82 L 734.31 561.91 L 724.13 552.00 L 689.31 552.00 L 654.50 551.99 L 660.50 548.38 C663.80,546.39 668.59,543.02 671.14,540.88 L 675.78 537.00 L 729.50 537.02 L 739.19 546.51 L 748.88 556.00 L 764.00 556.00 L 764.00 520.00 L 726.00 520.00 C705.10,520.00 688.00,519.85 688.00,519.66 C688.00,519.47 688.90,516.70 690.00,513.50 C691.10,510.30 692.00,506.86 692.00,505.84 C692.00,504.09 693.69,504.00 728.25,504.00 L 764.50 504.00 L 764.21 486.00 L 763.91 468.00 L 748.46 468.00 L 729.54 487.00 L 694.28 487.00 L 693.27 479.75 C692.72,475.76 692.46,472.16 692.69,471.75 C692.93,471.34 700.18,470.98 708.81,470.96 L 724.50 470.92 L 734.82 460.96 L 745.14 451.00 L 764.00 451.00 L 764.00 416.00 L 750.62 416.00 L 731.71 435.00 L 712.81 454.00 L 705.10 454.00 L 706.15 451.00 C706.73,449.35 707.60,448.00 708.10,448.00 C708.59,448.00 709.00,446.75 709.00,445.22 C709.00,442.28 711.44,438.00 713.12,438.00 C713.67,438.00 713.87,438.41 713.56,438.91 C712.75,440.21 721.41,439.39 724.18,437.90 C725.46,437.22 726.61,436.74 726.75,436.83 C727.71,437.48 729.00,436.76 729.00,435.58 C729.00,434.79 730.02,432.88 731.27,431.33 C732.53,429.77 734.58,426.37 735.84,423.76 C737.10,421.16 738.85,418.62 739.74,418.13 C741.93,416.90 742.17,414.28 740.15,413.48 C734.86,411.39 733.47,411.98 725.96,419.54 C721.92,423.61 718.92,427.26 719.31,427.64 C720.39,428.72 716.99,431.93 715.40,431.32 C714.30,430.90 714.08,431.56 714.44,434.34 C714.77,436.93 714.55,437.76 713.63,437.41 C712.94,437.15 711.54,437.85 710.53,438.96 C709.52,440.08 708.23,441.00 707.67,441.00 C707.11,441.00 707.71,439.88 709.00,438.50 C710.29,437.12 710.87,436.00 710.28,436.00 C709.69,436.00 708.94,436.71 708.61,437.58 C708.07,438.98 706.00,439.08 691.00,438.44 C681.65,438.05 674.00,438.02 674.00,438.39 C674.00,438.76 676.47,441.98 679.50,445.54 C680.07,446.22 680.62,446.89 681.14,447.53 C679.61,445.77 677.69,443.69 675.67,441.64 C666.44,432.28 658.20,427.57 644.50,423.80 C637.11,421.76 633.89,421.57 602.55,421.28 C595.04,421.21 589.00,421.13 584.20,421.03 L 596.96 420.86 C618.64,420.57 625.01,420.54 626.48,417.85 C627.08,416.73 626.85,415.15 626.51,412.90 L 626.46 412.56 C626.06,409.91 624.71,406.63 623.38,405.03 C622.07,403.48 621.00,402.00 621.00,401.74 C621.00,400.88 624.46,401.63 628.15,403.30 C644.61,410.72 660.44,399.33 658.60,381.39 L 657.96 375.20 L 702.31 330.79 L 702.68 330.86 L 694.34 339.07 C689.63,343.71 684.53,349.40 683.03,351.72 C681.52,354.05 680.08,355.74 679.83,355.49 C679.58,355.25 677.38,357.12 674.94,359.67 C672.50,362.21 671.11,363.94 671.86,363.52 C672.85,362.95 673.07,363.25 672.65,364.62 C670.80,370.83 670.87,371.66 673.42,374.08 C675.50,376.05 675.97,377.44 675.98,381.62 C675.99,384.44 676.90,389.56 678.00,393.01 C679.11,396.47 680.21,402.49 680.46,406.39 C680.71,410.30 681.66,415.98 682.58,419.00 C683.49,422.02 684.47,426.05 684.76,427.95 C685.04,429.85 685.88,432.02 686.63,432.78 C687.39,433.53 688.00,435.01 688.00,436.07 C688.00,437.84 688.78,438.00 697.26,438.00 L 706.52 438.00 L 745.48 399.00 L 763.68 399.00 L 764.34 363.75 C764.61,348.89 764.80,335.33 764.90,323.41 C764.91,327.27 764.92,331.38 764.92,335.75 L 765.00 399.00 L 812.08 399.00 L 811.50 416.50 L 765.00 417.04 L 765.00 451.00 L 812.00 451.00 L 812.00 469.00 L 765.00 469.00 L 765.00 503.00 L 812.08 503.00 L 811.50 521.12 L 788.25 521.20 L 765.00 521.28 L 765.00 555.00 L 812.08 555.00 L 811.50 573.50 L 765.00 573.12 L 765.00 607.00 L 812.00 607.00 L 812.00 625.00 L 765.00 625.00 L 765.00 648.00 L 812.12 648.00 L 800.31 648.00 L 788.50 648.01 L 788.35 703.31 L 788.19 758.62 L 785.24 765.06 C781.42,773.42 772.38,782.38 764.32,785.81 L 758.50 788.28 L 703.25 788.39 L 648.23 788.50 L 648.23 788.25 L 647.96 765.00 L 625.00 765.00 L 625.00 812.08 L 607.50 811.50 L 606.96 765.00 L 574.04 765.00 L 573.50 811.50 L 555.50 811.50 L 554.96 765.00 L 522.04 765.00 L 521.50 811.50 L 503.50 811.50 L 502.96 765.00 L 469.00 765.00 L 469.00 812.08 L 451.50 811.50 L 450.96 765.00 L 417.00 765.00 L 417.00 812.08 L 399.50 811.50 L 398.96 765.00 L 376.00 765.00 L 376.00 809.41 L 375.50 788.99 L 265.50 788.50 L 258.74 785.31 C251.70,781.98 243.39,774.50 240.27,768.66 C235.48,759.73 235.63,761.59 235.26,703.25 L 234.91 648.00 L 239.81 648.00 L 238.67 650.42 C237.89,652.07 237.27,652.47 236.74,651.67 C236.31,651.03 236.18,655.90 236.45,662.50 C237.19,680.88 238.07,690.00 239.08,690.00 C239.59,690.00 240.00,691.12 240.00,692.48 C240.00,695.62 243.47,696.66 248.45,695.02 C252.12,693.81 252.75,692.27 250.96,688.93 C250.16,687.43 250.26,687.00 251.38,687.00 C252.18,687.00 253.06,687.56 253.34,688.25 C253.62,688.94 253.88,688.29 253.92,686.81 C254.07,681.89 255.99,682.65 256.16,687.69 L 256.31 692.50 L 257.69 682.50 L 258.00 689.50 C258.18,693.35 258.69,681.42 259.15,663.00 C259.61,644.58 259.76,628.49 259.48,627.25 C259.00,625.15 258.41,624.99 250.73,624.90 C244.58,624.82 243.32,624.60 245.74,624.03 C247.53,623.60 249.62,622.73 250.39,622.09 C251.16,621.45 253.17,620.76 254.85,620.54 C257.20,620.25 258.06,620.61 258.52,622.08 C259.07,623.79 260.14,624.00 268.57,624.00 C274.19,624.00 278.00,623.60 278.00,623.00 C278.00,622.45 278.62,622.00 279.38,622.00 C280.14,622.00 281.37,621.25 282.13,620.34 C283.38,618.81 283.29,618.78 281.00,619.98 L 278.50 621.29 L 280.50 619.04 C281.60,617.80 282.39,616.61 282.25,616.40 C281.59,615.36 282.11,612.95 282.88,613.43 C283.37,613.73 285.44,612.83 287.50,611.44 C289.55,610.04 291.48,609.15 291.78,609.45 C292.09,609.75 291.81,610.00 291.17,610.00 C290.52,610.00 290.00,610.51 290.00,611.12 C290.00,611.88 290.50,611.83 291.55,610.96 C292.40,610.26 292.85,609.05 292.56,608.29 C292.23,607.43 292.46,607.16 293.16,607.60 C294.41,608.37 315.11,587.53 314.73,585.88 C314.47,584.77 348.20,584.60 361.75,585.64 C362.15,585.67 362.53,585.70 362.90,585.73 C366.76,586.04 368.75,586.19 369.54,585.30 C370.37,584.34 369.82,582.17 368.69,577.70 C368.59,577.31 368.49,576.89 368.38,576.46 L 368.34 576.32 L 370.99 586.25 C373.38,595.19 375.42,602.63 375.54,602.79 C375.66,602.96 393.65,603.06 415.52,603.02 L 455.28 602.96 L 454.66 611.73 C454.32,616.55 454.03,634.02 454.02,650.55 L 454.00 680.59 L 435.00 699.55 L 416.00 718.50 L 416.00 741.19 L 416.00 763.88 L 419.75 764.27 C426.45,764.97 439.56,765.02 445.85,764.36 ZM 399.39 764.13 C399.91,764.06 399.98,753.56 399.56,739.12 L 398.84 714.23 L 416.17 696.48 C432.85,679.40 433.49,678.59 433.30,674.92 C432.87,666.57 428.41,662.44 413.20,656.30 C408.63,654.45 404.47,653.21 403.95,653.53 C403.43,653.85 403.00,653.56 403.00,652.88 C403.00,652.15 402.09,652.48 400.75,653.71 C399.06,655.26 397.21,656.47 395.17,657.37 C400.40,654.17 404.96,647.16 405.68,641.04 C407.90,622.27 384.77,610.78 371.92,624.26 C369.03,627.30 367.18,630.22 366.28,633.39 C366.65,631.72 367.25,630.18 368.20,628.21 C370.58,623.27 370.65,622.67 369.36,618.91 C368.59,616.69 367.85,614.08 367.70,613.09 C367.54,612.10 366.65,610.12 365.71,608.68 C364.77,607.25 364.00,605.03 364.00,603.76 C364.00,600.43 361.78,597.71 353.99,591.49 L 347.11 586.00 L 317.56 586.00 L 278.39 625.00 L 260.00 625.00 L 259.95 673.75 C259.93,700.56 259.82,729.47 259.70,738.00 C259.51,752.42 259.65,753.74 261.69,757.00 C265.33,762.80 267.15,763.45 281.50,764.01 C292.35,764.44 396.60,764.55 399.39,764.13 ZM 756.67 762.77 C758.42,761.81 760.89,759.56 762.17,757.77 L 764.50 754.50 L 764.83 713.50 C765.01,690.95 764.85,661.70 764.48,648.50 L 763.79 624.50 L 754.96 624.82 L 746.13 625.14 L 706.50 586.01 L 693.97 586.00 C684.97,586.00 680.89,586.39 679.47,587.37 C678.39,588.13 675.92,589.08 674.00,589.49 C669.84,590.36 657.72,602.34 655.42,607.84 C654.63,609.74 653.24,611.84 652.33,612.50 C650.14,614.10 651.08,620.01 654.30,624.89 C658.05,630.57 659.31,635.60 658.69,642.40 L 658.13 648.50 L 680.28 670.75 C696.18,686.71 702.91,692.85 704.12,692.46 C705.05,692.17 708.30,691.90 711.35,691.86 C732.59,691.61 739.80,720.41 720.91,730.04 C712.16,734.51 700.35,731.40 694.50,723.08 C691.71,719.12 691.50,718.20 691.50,709.94 L 691.50 701.05 L 669.51 679.50 C648.38,658.79 647.40,657.98 644.51,658.72 C638.41,660.30 631.53,659.37 626.97,656.35 C622.18,653.18 616.18,649.45 614.21,648.43 C613.50,648.06 612.15,648.44 611.21,649.26 C610.27,650.09 607.03,651.91 604.00,653.31 C594.64,657.64 588.00,665.91 588.00,673.23 C588.00,676.10 589.38,677.90 598.59,687.02 C604.42,692.78 612.77,701.46 617.15,706.31 L 625.12 715.11 L 624.81 739.52 L 624.50 763.92 L 631.00 764.27 C634.58,764.45 663.60,764.59 695.50,764.55 C748.60,764.50 753.77,764.35 756.67,762.77 ZM 378.62 404.53 C392.45,409.46 406.00,400.30 406.00,386.01 C406.00,377.61 401.61,369.97 394.70,366.36 C391.46,364.67 385.02,364.18 379.99,365.25 L 376.48 366.00 L 353.57 343.07 C340.48,329.97 334.76,324.07 332.70,321.19 L 342.44 330.81 C347.84,336.14 351.97,339.66 351.62,338.64 C351.11,337.16 351.34,336.92 352.74,337.45 C353.88,337.89 353.45,336.98 351.50,334.83 C349.85,333.02 348.11,331.24 347.64,330.89 C347.17,330.54 347.29,329.94 347.91,329.56 C348.53,329.17 348.77,328.44 348.46,327.93 C348.14,327.42 348.30,327.00 348.82,327.00 C350.31,327.00 351.05,321.21 349.89,318.66 C349.10,316.93 349.19,315.46 350.23,312.92 C351.07,310.88 351.35,308.49 350.92,307.00 C349.42,301.79 349.92,290.06 351.75,287.26 C352.71,285.80 354.23,281.50 355.12,277.72 C356.70,271.04 356.69,270.79 354.75,268.98 C352.05,266.47 353.13,264.25 357.45,263.44 C359.40,263.08 361.00,262.41 361.00,261.95 C361.00,261.50 362.46,260.95 364.25,260.72 C366.04,260.50 345.59,260.25 318.81,260.16 C278.02,260.03 271.26,260.06 268.06,261.33 C268.21,261.25 268.37,261.17 268.53,261.09 L 273.25 258.74 L 335.37 259.36 C369.54,259.71 397.95,260.07 398.50,260.17 C399.12,260.28 399.64,269.86 399.87,285.65 L 400.24 310.95 L 419.11 330.23 L 437.98 349.50 L 437.99 354.75 C438.00,357.64 437.60,360.00 437.11,360.00 C436.62,360.00 435.91,361.24 435.53,362.75 C434.08,368.58 429.44,374.46 423.26,378.35 C420.06,380.36 418.18,382.69 415.58,387.84 C413.04,392.89 410.33,396.27 405.19,400.84 C397.23,407.89 391.86,416.92 394.87,418.18 C396.24,418.75 396.17,418.89 394.50,419.05 C393.40,419.16 394.52,419.61 397.00,420.05 C399.48,420.49 413.27,420.89 427.66,420.93 L 453.82 421.00 L 454.16 387.04 C454.35,368.37 454.35,350.71 454.16,347.79 L 453.82 342.50 L 416.00 305.16 L 416.00 260.00 L 452.00 260.00 L 452.00 311.26 L 460.08 319.52 C464.52,324.06 468.79,328.68 469.57,329.79 C470.72,331.44 471.03,339.87 471.24,376.15 L 471.50 420.50 L 479.25 420.79 L 486.90 421.08 L 486.90 421.08 L 479.20 420.79 L 471.50 420.50 L 470.96 403.50 C470.67,394.15 470.33,388.84 470.21,391.69 C470.05,395.63 469.51,397.23 467.97,398.31 C466.12,399.60 465.64,399.47 462.86,396.87 C461.17,395.29 459.39,394.00 458.89,394.00 C458.40,394.00 458.00,393.30 458.00,392.44 C458.00,391.58 457.58,391.14 457.06,391.46 C456.55,391.78 455.95,390.34 455.73,388.27 C455.51,386.20 455.29,392.38 455.24,402.00 C455.18,411.62 455.49,418.61 455.91,417.53 C456.60,415.77 456.74,415.86 457.22,418.35 L 457.75 421.13 L 402.62 420.82 C361.27,420.58 346.96,420.19 345.35,419.27 C343.35,418.13 343.23,417.40 343.59,409.38 C343.80,404.62 344.43,400.18 344.98,399.52 C345.54,398.86 346.20,395.88 346.46,392.91 C348.10,373.96 350.66,364.27 353.72,365.45 C356.60,366.55 352.65,362.05 337.55,347.01 L 321.99 331.52 L 317.66 331.51 C318.18,331.37 318.66,331.18 319.08,330.96 C321.33,329.75 322.41,330.69 344.06,352.74 L 366.70 375.78 L 365.66 380.86 C363.63,390.74 369.38,401.24 378.62,404.53 ZM 755.43 260.00 L 708.58 260.12 C682.69,260.18 662.85,260.58 664.50,261.00 C667.37,261.73 667.33,261.77 663.44,261.88 C659.68,261.99 659.38,262.21 659.46,264.75 C659.51,266.26 660.12,268.52 660.82,269.77 C661.88,271.65 661.83,272.41 660.54,274.24 C659.70,275.45 659.00,278.03 659.00,279.97 C659.00,284.18 661.69,297.56 663.04,300.08 C663.60,301.13 663.64,302.83 663.15,304.18 C661.96,307.40 662.88,336.31 664.19,337.12 C664.86,337.53 664.72,338.08 663.79,338.63 C660.12,340.84 660.72,345.75 664.67,345.75 C666.21,345.75 666.74,345.45 666.00,345.00 C665.07,344.42 665.06,344.08 665.97,343.52 C666.66,343.09 666.91,341.77 666.56,340.39 C665.99,338.10 667.15,337.34 670.36,337.92 C670.83,338.00 671.85,337.54 672.63,336.89 C673.79,335.93 673.92,336.06 673.35,337.61 C672.66,339.49 678.80,334.40 688.08,325.41 L 692.65 320.98 L 692.66 321.00 L 670.27 343.25 C652.96,360.45 647.38,365.43 645.69,365.20 C638.16,364.18 632.09,364.78 628.67,366.89 C623.69,369.97 620.26,374.34 618.92,379.30 C617.64,384.00 618.37,394.54 620.12,396.65 C620.99,397.69 620.87,398.00 619.61,398.00 C617.26,398.00 611.11,393.81 610.44,391.75 C610.12,390.79 609.45,390.00 608.93,390.00 C608.42,390.00 608.00,389.36 608.00,388.58 C608.00,387.00 600.68,379.00 599.24,379.00 C597.89,379.00 589.21,365.94 588.44,362.75 C588.08,361.24 587.38,360.00 586.89,360.00 C586.40,360.00 586.02,357.64 586.04,354.75 L 586.09 349.50 L 605.03 330.00 L 623.98 310.50 L 623.99 285.36 L 624.00 260.22 L 648.25 259.54 C661.59,259.16 691.02,259.00 713.66,259.18 L 754.82 259.50 ZM 517.54 421.00 C516.01,421.00 514.90,421.73 514.50,423.00 C513.78,425.25 512.17,425.45 506.75,423.95 C503.76,423.12 503.00,422.43 503.00,420.52 C503.00,419.01 502.26,417.90 501.00,417.50 C499.90,417.15 499.00,416.49 499.00,416.03 C499.00,415.56 498.05,415.44 496.89,415.74 C495.33,416.15 493.84,415.28 491.14,412.40 L 487.50 408.50 L 487.20 414.79 L 487.00 419.03 L 487.00 326.74 L 468.00 306.95 L 468.00 260.00 L 504.00 260.00 L 504.00 421.00 ZM 570.00 420.35 C568.64,420.17 567.97,419.97 567.81,419.73 C566.68,417.95 566.82,414.77 568.00,415.50 C568.64,415.89 568.95,413.29 568.87,408.31 C568.77,402.23 568.57,401.28 568.00,404.00 L 567.26 407.50 L 567.13 403.90 C566.98,399.64 564.38,394.00 562.57,394.00 C561.87,394.00 560.15,395.37 558.76,397.05 C556.44,399.86 556.11,399.97 554.62,398.48 C553.13,396.98 553.00,397.80 553.00,408.93 L 553.00 331.15 L 562.46 321.33 L 571.92 311.50 L 571.96 285.75 L 572.00 260.00 L 608.00 260.00 L 608.00 305.15 L 570.00 342.96 ZM 537.00 418.40 C537.00,416.25 534.23,410.99 532.05,409.00 C531.75,408.73 531.50,407.83 531.50,407.01 C531.50,406.20 530.60,405.35 529.50,405.14 C528.41,404.93 525.93,403.13 524.00,401.13 L 520.50 397.50 L 520.22 409.25 C520.14,412.36 520.09,414.65 520.00,416.33 L 520.00 260.00 L 556.00 260.00 L 555.99 283.25 L 555.98 306.50 L 546.49 316.66 L 537.00 326.82 ZM 368.40 664.15 C367.95,664.89 368.13,665.04 368.91,664.55 C369.59,664.14 369.90,663.19 369.62,662.45 C369.31,661.63 369.61,661.30 370.40,661.60 C371.11,661.87 372.78,660.73 374.10,659.06 C376.75,655.70 378.53,655.33 381.44,657.53 C382.96,658.68 386.70,659.15 389.96,658.89 C386.61,659.45 382.79,659.41 378.33,658.80 C376.66,658.57 370.95,663.67 353.63,680.83 C332.63,701.65 331.17,703.32 332.05,705.64 C333.46,709.35 333.20,715.59 331.45,719.77 C324.49,736.43 300.51,736.43 293.55,719.77 C287.29,704.79 300.84,688.33 316.46,691.92 L 321.42 693.06 L 343.69 670.81 L 365.96 648.56 L 365.81 641.29 C365.90,642.03 366.03,642.80 366.19,643.59 L 367.25 648.85 L 363.58 652.06 C360.19,655.04 356.55,660.01 358.77,658.64 C359.30,658.31 361.04,659.16 362.62,660.52 C364.20,661.88 366.31,663.00 367.31,663.00 C368.42,663.00 368.84,663.44 368.40,664.15 ZM 438.65 662.36 C439.22,669.15 439.45,669.80 440.64,668.11 C442.19,665.90 443.68,657.00 445.02,642.00 C445.54,636.22 446.41,628.12 446.95,624.00 C447.49,619.88 447.95,615.71 447.97,614.75 C447.99,613.79 448.98,612.02 450.18,610.82 C452.28,608.72 452.37,608.71 453.11,610.57 C453.64,611.94 453.88,611.30 453.93,608.35 L 454.00 604.20 L 442.52 603.48 C428.55,602.61 418.10,603.50 418.40,605.55 C418.52,606.32 421.45,610.23 424.93,614.23 C428.61,618.47 432.65,624.55 434.62,628.81 C437.69,635.45 438.00,636.95 438.00,645.40 C438.00,650.52 438.29,658.15 438.65,662.36 ZM 607.48 589.88 L 608.14 593.79 L 619.82 589.93 C631.47,586.07 631.56,586.06 653.50,585.29 C665.60,584.87 673.35,584.38 670.73,584.20 C668.10,584.03 666.18,583.52 666.45,583.08 C667.13,581.98 660.71,581.18 645.86,580.50 C619.22,579.29 615.91,579.02 613.93,577.96 C609.13,575.40 608.21,575.84 607.49,581.05 C607.12,583.75 607.12,587.72 607.48,589.88 ZM 582.69 636.00 L 584.50 652.50 L 585.23 640.50 C585.92,629.02 587.48,622.83 593.38,608.00 C594.57,605.02 592.39,603.69 586.17,603.60 C582.85,603.56 579.85,603.82 579.49,604.18 C579.13,604.54 579.30,608.13 579.86,612.16 C580.42,616.20 581.69,626.92 582.69,636.00 ZM 749.25 412.57 C754.53,413.50 758.90,413.31 759.11,412.13 C759.28,411.18 760.00,405.77 760.27,403.50 C760.40,402.40 760.95,401.17 761.50,400.77 C762.05,400.36 758.34,400.02 753.25,400.02 C744.22,400.00 743.38,400.30 743.91,403.33 C743.99,403.78 743.62,405.70 743.10,407.59 C742.53,409.65 742.52,410.79 743.08,410.45 C743.58,410.14 744.00,410.28 744.00,410.76 C744.00,411.24 746.36,412.05 749.25,412.57 ZM 717.50 716.82 C719.61,714.31 720.05,712.98 719.57,710.57 C717.71,701.22 704.00,702.35 704.00,711.86 C704.00,719.77 712.42,722.86 717.50,716.82 ZM 643.99 390.51 C639.17,395.64 630.99,392.20 630.78,384.95 C630.67,380.96 634.70,377.00 638.88,377.00 C645.31,377.00 648.58,385.63 643.99,390.51 ZM 390.81 390.96 C385.76,395.67 378.00,391.91 378.00,384.76 C378.00,380.66 381.58,377.00 385.58,377.00 C388.18,377.00 392.81,380.71 393.07,383.00 C393.49,386.76 392.84,389.08 390.81,390.96 ZM 317.37 717.93 C322.77,713.68 319.49,704.00 312.64,704.00 C305.69,704.00 302.43,712.52 307.45,717.55 C310.45,720.55 313.87,720.68 317.37,717.93 ZM 312.34 570.01 L 309.95 572.56 C308.33,574.27 308.09,574.90 309.20,574.48 C310.10,574.13 311.09,573.21 311.39,572.42 C311.69,571.64 312.49,571.00 313.16,571.00 C313.84,571.00 312.87,572.58 311.00,574.50 C309.13,576.42 306.91,578.01 306.05,578.02 C304.35,578.04 293.09,588.19 287.82,594.44 C285.23,597.51 284.94,598.22 286.50,597.65 C287.64,597.23 286.47,598.91 283.75,601.58 C279.56,605.69 278.48,607.60 278.87,610.22 C278.93,610.62 277.83,610.51 276.43,609.97 C275.02,609.44 271.49,609.00 268.58,609.00 C264.30,609.00 262.77,609.49 260.55,611.54 C257.52,614.35 254.49,614.13 253.50,611.01 C253.18,609.98 252.14,608.93 251.20,608.68 C250.27,608.43 251.59,608.18 254.14,608.12 C257.38,608.04 258.97,607.52 259.39,606.42 C259.71,605.58 259.98,598.14 260.00,589.65 L 260.00 608.00 L 273.53 608.00 L 311.50 570.01 ZM 643.93 643.37 C649.00,636.92 643.05,630.78 635.60,634.76 C633.89,635.67 632.16,636.32 631.75,636.21 C631.34,636.09 631.00,637.21 631.00,638.69 C631.00,645.36 639.84,648.56 643.93,643.37 ZM 555.42 583.00 L 573.72 583.00 L 573.45 580.50 C573.27,578.84 573.67,578.00 574.65,578.00 C575.46,578.00 575.84,577.55 575.50,577.00 C575.14,576.42 576.07,576.01 577.69,576.02 C579.87,576.03 580.16,576.25 579.00,577.00 C577.92,577.70 578.81,577.97 582.25,577.98 L 587.00 578.00 L 587.00 538.00 L 588.00 538.00 L 587.90 558.75 C587.85,570.16 587.51,580.40 587.15,581.50 C586.55,583.34 585.45,583.53 572.90,583.87 C565.42,584.07 558.34,583.92 557.15,583.55 ZM 388.78 645.44 C391.77,643.35 391.58,641.73 387.85,637.48 C385.73,635.07 384.18,634.11 383.10,634.55 C382.22,634.90 380.83,635.30 380.00,635.44 C378.30,635.72 377.88,637.80 378.37,640.06 C378.13,639.12 378.00,638.10 378.00,637.01 C378.00,633.44 381.15,631.00 385.77,631.00 C392.99,631.00 396.61,639.49 391.55,644.55 C388.71,647.38 385.18,647.55 382.44,645.87 C385.37,647.27 386.27,647.20 388.78,645.44 ZM 228.89 624.56 C229.13,624.80 225.66,625.00 221.17,625.00 L 213.00 625.00 L 213.00 616.50 C213.00,609.61 213.28,608.00 214.50,608.00 C215.66,608.00 216.00,609.31 216.00,613.81 C216.00,617.00 216.56,620.34 217.25,621.23 C217.94,622.11 220.74,623.13 223.48,623.48 C226.21,623.83 228.65,624.32 228.89,624.56 ZM 630.69 537.33 C632.12,537.11 633.06,536.82 633.83,536.44 C635.55,535.58 637.20,534.49 637.48,534.02 C637.77,533.56 639.47,533.38 641.25,533.63 C643.40,533.93 644.05,533.78 643.15,533.17 C642.14,532.49 642.46,532.10 644.45,531.60 C645.90,531.24 647.49,531.18 647.97,531.48 C649.07,532.16 656.56,527.15 660.27,523.25 C661.80,521.65 663.25,519.30 663.49,518.03 C663.95,515.65 666.29,512.43 669.13,510.29 C670.20,509.48 671.16,507.63 671.92,505.12 C669.90,511.97 666.25,517.91 660.71,523.66 C655.27,529.31 645.89,534.25 636.20,536.57 C634.92,536.87 633.09,537.13 630.69,537.33 ZM 285.02 566.40 C286.71,564.49 287.85,562.72 287.75,562.07 C287.61,561.23 288.10,560.53 288.83,560.52 C289.56,560.51 290.71,559.47 291.39,558.21 C292.64,555.87 293.75,554.56 297.96,553.82 L 289.40 562.20 C287.75,563.83 286.31,565.21 285.02,566.40 ZM 504.00 407.31 C504.00,402.97 503.89,402.76 502.53,404.56 C500.07,407.82 500.58,410.92 503.75,411.92 C503.89,411.96 504.00,409.89 504.00,407.31 ZM 631.24 624.34 C633.33,625.18 633.76,625.06 634.36,623.50 C634.75,622.49 634.31,622.00 633.03,622.00 C630.73,622.00 629.48,623.63 631.24,624.34 ZM 439.72 525.62 C443.86,510.21 447.28,497.05 447.69,494.55 C448.40,490.12 449.59,489.99 450.39,494.25 C450.64,495.58 452.20,501.57 454.53,510.30 C452.93,504.38 451.67,499.68 451.03,497.25 C449.75,492.35 448.50,491.81 447.57,495.75 C446.41,500.64 443.32,512.34 439.72,525.62 ZM 347.92 334.36 C345.61,331.85 345.60,331.78 347.69,332.87 C350.01,334.08 351.49,335.85 350.77,336.56 C350.53,336.80 349.25,335.81 347.92,334.36 ZM 554.07 412.25 C554.13,409.81 554.24,409.73 555.00,411.50 C556.17,414.23 556.17,415.00 555.00,415.00 C554.45,415.00 554.03,413.76 554.07,412.25 ZM 261.16 572.50 L 275.40 572.50 C273.08,573.04 270.47,573.02 266.75,572.81 ZM 734.00 414.50 C733.32,415.33 732.60,416.00 732.41,416.00 C732.22,416.00 732.32,415.33 732.64,414.50 C732.95,413.67 733.67,413.00 734.23,413.00 C734.81,413.00 734.72,413.64 734.00,414.50 ZM 332.60 317.08 L 332.63 321.08 C331.65,319.68 331.57,319.02 331.94,318.57 C332.22,318.24 332.44,317.74 332.60,317.08 ZM 708.69 331.95 C713.59,332.62 716.94,332.07 720.84,330.08 C723.19,328.88 725.13,327.52 726.72,325.92 C722.16,330.77 715.44,333.20 708.69,331.95 ZM 763.68 269.30 C762.88,267.44 761.01,264.86 759.24,263.25 L 757.54 261.71 L 758.59 262.55 C760.66,264.23 762.92,267.16 763.60,269.05 C763.63,269.13 763.65,269.21 763.68,269.30 ZM 307.74 331.31 C305.07,331.02 303.65,330.36 301.32,328.83 C303.05,329.92 305.34,330.77 307.74,331.31 ZM 260.50 277.00 C260.00,286.05 260.00,301.54 260.00,328.95 L 260.00 328.95 C260.00,330.80 260.00,332.70 260.00,334.66 C260.00,331.26 260.00,328.02 260.00,324.95 C259.99,300.23 259.99,285.74 260.50,277.00 ZM 668.68 465.30 C663.19,454.11 653.41,446.46 639.76,442.87 C653.46,446.47 663.21,454.09 668.68,465.30 ZM 267.07 261.80 C266.97,261.86 266.86,261.92 266.75,261.99 C265.60,262.66 264.65,263.17 263.85,263.86 C263.47,264.20 263.12,264.58 262.81,265.04 C263.20,264.41 263.64,263.92 264.15,263.50 C264.96,262.83 265.92,262.35 267.07,261.80 ZM 672.43 503.24 C673.31,499.55 673.84,494.86 673.85,490.00 C673.88,494.83 673.42,499.19 672.43,503.24 ZM 329.55 299.93 C331.09,302.15 331.83,303.47 332.20,305.62 C331.72,303.54 330.93,301.93 329.55,299.93 ZM 685.91 453.46 C687.10,453.72 689.39,453.90 692.38,453.97 C688.81,453.92 686.95,453.79 685.91,453.46 ZM 782.51 802.23 C789.30,797.99 795.00,792.71 799.60,786.40 C794.98,792.74 789.27,798.03 782.51,802.23 ZM 648.49 810.57 C648.56,811.02 648.64,811.31 648.72,811.39 C648.76,811.43 649.06,811.46 649.60,811.50 L 648.50 811.50 ZM 316.01 291.30 C308.53,290.07 300.43,292.91 295.56,299.82 C300.44,292.90 308.53,290.06 316.01,291.30 ZM 293.29 318.34 C291.19,312.23 291.78,305.20 295.56,299.82 C291.79,305.18 291.20,312.22 293.29,318.34 ZM 684.51 452.03 C684.77,452.44 684.93,452.75 684.98,452.92 C684.76,452.68 684.63,452.39 684.51,452.03 Z" fill="rgb(34,137,169)"/>
<path d="M 235.87 321.75 L 235.87 318.10 C235.84,274.26 235.83,266.69 238.48,260.20 C239.11,258.66 239.88,257.19 240.84,255.32 C243.88,249.35 253.93,240.54 260.50,238.08 C265.90,236.06 267.78,236.00 321.04,236.00 L 376.00 236.00 L 376.00 259.00 L 399.00 259.00 L 399.00 213.00 L 401.25 212.84 C402.49,212.76 404.85,212.57 406.50,212.43 C408.15,212.29 411.19,212.42 413.25,212.72 L 417.00 213.26 L 417.00 259.00 L 451.00 259.00 L 451.00 213.23 L 456.41 212.55 C459.39,212.18 463.44,212.18 465.41,212.55 L 469.00 213.22 L 469.00 259.00 L 503.00 259.00 L 503.00 213.19 L 507.98 212.50 C510.72,212.13 514.77,212.12 516.98,212.50 L 521.00 213.18 L 521.00 259.00 L 555.00 259.00 L 555.00 213.23 L 560.25 212.67 C563.14,212.36 566.62,212.27 568.00,212.47 C569.38,212.67 571.06,212.87 571.75,212.92 C572.71,212.98 573.00,218.31 573.00,236.00 L 573.00 259.00 L 607.00 259.00 L 607.00 236.11 C607.00,234.35 607.00,232.72 606.99,231.20 C606.97,218.50 606.96,214.15 609.01,212.69 C610.08,211.93 611.70,211.95 614.17,211.98 C614.73,211.99 615.34,212.00 616.00,212.00 C616.66,212.00 617.27,211.99 617.83,211.98 C620.30,211.95 621.92,211.93 622.99,212.69 C625.04,214.15 625.03,218.50 625.01,231.20 C625.00,232.72 625.00,234.35 625.00,236.11 L 625.00 259.00 L 648.00 259.00 L 648.06 247.25 C648.09,240.79 648.06,230.44 648.00,224.25 L 647.89 213.00 L 647.93 213.00 L 648.22 224.25 L 648.50 235.50 L 761.50 236.50 L 766.22 238.84 C776.50,243.96 784.48,253.95 787.46,265.46 C788.75,270.46 789.00,279.84 789.00,323.71 L 789.00 376.00 L 765.00 376.00 L 765.00 399.00 L 764.92 335.75 C764.92,331.38 764.91,327.27 764.90,323.41 C765.16,292.57 764.82,272.72 763.91,269.90 C763.84,269.71 763.77,269.51 763.68,269.30 C763.65,269.21 763.63,269.13 763.60,269.05 C762.92,267.16 760.66,264.23 758.59,262.55 L 757.54 261.71 L 755.67 260.00 L 755.43 260.00 L 754.82 259.50 L 713.66 259.18 C691.02,259.00 661.59,259.16 648.25,259.54 L 624.00 260.22 L 623.99 285.36 L 623.98 310.50 L 605.03 330.00 L 586.09 349.50 L 586.04 354.75 C586.02,357.64 586.40,360.00 586.89,360.00 C587.38,360.00 588.08,361.24 588.44,362.75 C589.21,365.94 597.89,379.00 599.24,379.00 C600.68,379.00 608.00,387.00 608.00,388.58 C608.00,389.36 608.42,390.00 608.93,390.00 C609.45,390.00 610.12,390.79 610.44,391.75 C611.11,393.81 617.26,398.00 619.61,398.00 C620.87,398.00 620.99,397.69 620.12,396.65 C618.37,394.54 617.64,384.00 618.92,379.30 C620.26,374.34 623.69,369.97 628.67,366.89 C632.09,364.78 638.16,364.18 645.69,365.20 C647.38,365.43 652.96,360.45 670.27,343.25 L 692.66 321.00 L 692.65 320.98 L 691.71 315.74 C689.96,305.97 694.34,297.43 703.36,293.07 C719.22,285.39 736.62,300.51 731.53,317.55 C730.56,320.79 728.88,323.63 726.72,325.92 C725.13,327.52 723.19,328.88 720.84,330.08 C716.94,332.07 713.59,332.62 708.69,331.95 C708.41,331.90 708.13,331.84 707.85,331.78 L 702.91 330.64 L 702.68 330.86 L 702.31 330.79 L 657.96 375.20 L 658.60 381.39 C660.44,399.33 644.61,410.72 628.15,403.30 C624.46,401.63 621.00,400.88 621.00,401.74 C621.00,402.00 622.07,403.48 623.38,405.03 C624.71,406.63 626.06,409.91 626.46,412.56 L 626.51 412.90 C626.85,415.15 627.08,416.73 626.48,417.85 C625.01,420.54 618.64,420.57 596.96,420.86 L 584.20 421.03 C576.84,420.86 572.38,420.65 570.00,420.35 L 570.00 342.96 L 608.00 305.15 L 608.00 260.00 L 572.00 260.00 L 571.96 285.75 L 571.92 311.50 L 562.46 321.33 L 553.00 331.15 L 553.00 421.00 L 545.00 421.00 C537.05,421.00 537.00,420.98 537.00,418.40 L 537.00 326.82 L 546.49 316.66 L 555.98 306.50 L 555.99 283.25 L 556.00 260.00 L 520.00 260.00 L 520.00 416.33 C519.76,420.95 519.28,421.00 517.54,421.00 L 504.00 421.00 L 504.00 260.00 L 468.00 260.00 L 468.00 306.95 L 487.00 326.74 L 487.00 419.03 L 486.90 421.08 L 479.25 420.79 L 471.50 420.50 L 471.24 376.15 C471.03,339.87 470.72,331.44 469.57,329.79 C468.79,328.68 464.52,324.06 460.08,319.52 L 452.00 311.26 L 452.00 260.00 L 416.00 260.00 L 416.00 305.16 L 453.82 342.50 L 454.16 347.79 C454.35,350.71 454.35,368.37 454.16,387.04 L 453.82 421.00 L 427.66 420.93 C413.27,420.89 399.48,420.49 397.00,420.05 C394.52,419.61 393.40,419.16 394.50,419.05 C396.17,418.89 396.24,418.75 394.87,418.18 C391.86,416.92 397.23,407.89 405.19,400.84 C410.33,396.27 413.04,392.89 415.58,387.84 C418.18,382.69 420.06,380.36 423.26,378.35 C429.44,374.46 434.08,368.58 435.53,362.75 C435.91,361.24 436.62,360.00 437.11,360.00 C437.60,360.00 438.00,357.64 437.99,354.75 L 437.98 349.50 L 419.11 330.23 L 400.24 310.95 L 399.87 285.65 C399.64,269.86 399.12,260.28 398.50,260.17 C397.95,260.07 369.54,259.71 335.37,259.36 L 273.25 258.74 L 268.53 261.09 C268.37,261.17 268.21,261.25 268.06,261.33 C267.70,261.47 267.39,261.62 267.07,261.80 C265.92,262.35 264.96,262.83 264.15,263.50 C263.64,263.92 263.20,264.41 262.81,265.04 C261.58,266.87 260.89,270.02 260.50,277.00 C259.99,285.74 259.99,300.23 260.00,324.95 C260.00,327.93 260.00,331.06 260.00,334.35 L 260.00 398.88 L 264.26 399.52 C266.61,399.87 270.74,399.89 273.45,399.58 L 278.38 399.00 L 297.97 418.50 L 317.56 438.00 L 322.67 438.00 C322.85,438.00 323.03,438.00 323.20,438.00 C325.16,438.00 326.35,437.99 327.23,438.52 C328.67,439.39 329.25,441.68 330.97,447.75 L 332.73 454.00 L 311.48 454.00 L 273.52 416.00 L 260.00 416.00 L 260.00 450.74 L 263.75 451.36 C265.81,451.70 270.21,451.98 273.53,451.99 L 279.55 452.00 L 286.53 459.11 C290.36,463.02 295.26,467.52 297.40,469.11 L 301.30 472.00 L 337.81 472.00 L 339.90 478.91 C341.06,482.70 342.00,486.08 342.00,486.41 C342.00,486.73 331.44,487.00 318.53,487.00 L 295.05 487.00 L 275.26 468.00 L 260.00 468.00 L 260.00 503.98 L 303.61 504.24 L 347.23 504.50 L 349.10 510.50 C349.40,511.48 349.72,512.36 350.01,513.14 C350.73,515.14 351.25,516.56 350.81,517.57 C349.73,520.08 342.76,520.07 318.45,520.02 C314.58,520.01 310.27,520.00 305.48,520.00 L 259.95 520.00 L 260.50 556.50 L 267.14 556.79 L 273.78 557.09 L 279.18 552.29 C282.15,549.66 286.67,545.23 289.23,542.46 C293.73,537.59 294.04,537.43 299.19,537.53 C302.11,537.58 316.29,537.71 330.70,537.81 L 356.91 538.00 L 358.91 544.67 C360.01,548.34 360.71,551.66 360.47,552.05 C360.23,552.44 346.28,552.79 329.46,552.83 L 298.89 552.91 L 297.96 553.82 C293.75,554.56 292.64,555.87 291.39,558.21 C290.71,559.47 289.56,560.51 288.83,560.52 C288.10,560.53 287.61,561.23 287.75,562.07 C287.85,562.72 286.71,564.49 285.02,566.40 C281.05,570.04 278.49,571.77 275.40,572.50 L 261.16 572.50 L 260.00 572.43 L 260.00 589.65 C259.98,598.14 259.71,605.58 259.39,606.42 C258.97,607.52 257.38,608.04 254.14,608.12 C251.59,608.18 250.27,608.43 251.20,608.68 C252.14,608.93 253.18,609.98 253.50,611.01 C254.49,614.13 257.52,614.35 260.55,611.54 C262.77,609.49 264.30,609.00 268.58,609.00 C271.49,609.00 275.02,609.44 276.43,609.97 C277.83,610.51 278.93,610.62 278.87,610.22 C278.48,607.60 279.56,605.69 283.75,601.58 C286.47,598.91 287.64,597.23 286.50,597.65 C284.94,598.22 285.23,597.51 287.82,594.44 C293.09,588.19 304.35,578.04 306.05,578.02 C306.91,578.01 309.13,576.42 311.00,574.50 C312.87,572.58 313.84,571.00 313.16,571.00 C312.49,571.00 311.69,571.64 311.39,572.42 C311.09,573.21 310.10,574.13 309.20,574.48 C308.09,574.90 308.33,574.27 309.95,572.56 L 312.34 570.01 L 366.66 570.00 L 368.34 576.32 L 368.38 576.46 C368.49,576.89 368.59,577.31 368.69,577.70 C369.82,582.17 370.37,584.34 369.54,585.30 C368.75,586.19 366.76,586.04 362.90,585.73 C362.53,585.70 362.15,585.67 361.75,585.64 C348.20,584.60 314.47,584.77 314.73,585.88 C315.11,587.53 294.41,608.37 293.16,607.60 C292.46,607.16 292.23,607.43 292.56,608.29 C292.85,609.05 292.40,610.26 291.55,610.96 C290.50,611.83 290.00,611.88 290.00,611.12 C290.00,610.51 290.52,610.00 291.17,610.00 C291.81,610.00 292.09,609.75 291.78,609.45 C291.48,609.15 289.55,610.04 287.50,611.44 C285.44,612.83 283.37,613.73 282.88,613.43 C282.11,612.95 281.59,615.36 282.25,616.40 C282.39,616.61 281.60,617.80 280.50,619.04 L 278.50 621.29 L 281.00 619.98 C283.29,618.78 283.38,618.81 282.13,620.34 C281.37,621.25 280.14,622.00 279.38,622.00 C278.62,622.00 278.00,622.45 278.00,623.00 C278.00,623.60 274.19,624.00 268.57,624.00 C260.14,624.00 259.07,623.79 258.52,622.08 C258.06,620.61 257.20,620.25 254.85,620.54 C253.17,620.76 251.16,621.45 250.39,622.09 C249.62,622.73 247.53,623.60 245.74,624.03 C243.32,624.60 244.58,624.82 250.73,624.90 C252.54,624.92 253.95,624.95 255.07,625.00 L 221.17 625.00 C225.66,625.00 229.13,624.80 228.89,624.56 C228.65,624.32 226.21,623.83 223.48,623.48 C220.74,623.13 217.94,622.11 217.25,621.23 C216.56,620.34 216.00,617.00 216.00,613.81 C216.00,609.31 215.66,608.00 214.50,608.00 C213.28,608.00 213.00,609.61 213.00,616.50 L 213.00 625.00 L 211.92 625.00 L 212.21 616.25 L 212.50 607.50 L 259.00 606.96 L 259.00 573.19 L 251.19 573.72 C246.89,574.02 236.30,573.93 227.65,573.52 L 211.93 572.79 L 212.21 564.14 L 212.50 555.50 L 259.00 554.96 L 259.00 521.00 L 213.23 521.00 L 212.63 518.75 C211.84,515.82 211.83,506.61 212.61,504.58 C213.14,503.20 216.15,503.00 236.11,503.00 L 259.00 503.00 L 259.00 469.00 L 213.00 469.00 L 213.00 466.15 C213.00,464.58 212.71,460.53 212.36,457.15 L 211.72 451.00 L 259.00 451.00 L 259.00 417.04 L 212.50 416.50 L 212.20 410.03 C212.03,406.47 212.15,402.54 212.47,401.28 L 213.04 399.00 L 259.00 399.00 L 259.00 376.00 L 235.90 376.00 ZM 396.38 583.33 L 391.26 582.90 L 386.67 567.70 C381.83,551.67 365.48,495.38 356.47,463.75 C353.54,453.44 350.85,444.10 350.50,443.00 C349.88,441.05 350.32,441.00 367.19,441.00 L 384.51 441.00 L 387.84 454.25 C405.87,525.92 407.91,533.51 408.92,532.38 C409.35,531.90 411.37,524.97 413.41,517.00 C415.44,509.02 420.03,491.02 423.60,477.00 C427.18,462.98 430.76,449.14 431.58,446.25 L 433.06 441.00 L 448.53 441.00 C457.04,441.00 464.31,440.89 464.68,440.75 C464.79,440.71 464.86,440.60 464.95,440.59 C465.51,440.53 466.53,444.50 479.92,496.42 L 479.92 496.42 C480.90,500.19 481.93,504.21 483.04,508.50 C486.44,521.70 489.52,532.82 489.87,533.21 C490.23,533.60 495.42,514.47 501.41,490.71 C507.40,466.94 512.71,446.04 513.20,444.25 L 514.09 441.00 L 573.36 441.00 C628.06,441.00 633.19,441.14 639.76,442.87 L 639.76 442.87 C653.41,446.45 663.19,454.10 668.68,465.29 L 668.68 465.30 C671.65,471.38 673.36,478.52 673.76,486.65 C673.81,487.79 673.84,488.91 673.85,490.00 L 673.85 490.00 C673.84,494.86 673.31,499.55 672.43,503.24 C672.27,503.87 672.10,504.50 671.92,505.12 C671.16,507.63 670.20,509.48 669.13,510.29 C666.29,512.43 663.95,515.65 663.49,518.03 C663.25,519.30 661.80,521.65 660.27,523.25 C656.56,527.15 649.07,532.16 647.97,531.48 C647.49,531.18 645.90,531.24 644.45,531.60 C642.46,532.10 642.14,532.49 643.15,533.17 C644.05,533.78 643.40,533.93 641.25,533.63 C639.47,533.38 637.77,533.56 637.48,534.02 C637.20,534.49 635.55,535.58 633.83,536.44 C633.06,536.82 632.12,537.11 630.69,537.33 C625.90,537.74 618.83,537.95 609.25,537.96 L 588.00 538.00 L 587.00 538.00 L 587.00 578.00 L 582.25 577.98 C578.81,577.97 577.92,577.70 579.00,577.00 C580.16,576.25 579.87,576.03 577.69,576.02 C576.07,576.01 575.14,576.42 575.50,577.00 C575.84,577.55 575.46,578.00 574.65,578.00 C573.67,578.00 573.27,578.84 573.45,580.50 L 573.72 583.00 L 555.42 583.00 L 555.00 582.87 L 555.00 488.00 L 588.00 488.00 L 588.00 510.00 L 605.32 510.00 C617.68,510.00 624.06,509.58 627.61,508.52 C635.94,506.05 641.00,498.90 641.00,489.61 C641.00,480.42 637.99,475.35 630.50,471.89 C626.81,470.19 623.16,470.04 583.29,470.02 L 540.08 470.00 L 538.96 473.75 C538.35,475.81 530.99,501.35 522.62,530.50 L 507.40 583.50 L 491.75 583.50 C482.64,583.50 475.69,583.08 475.12,582.50 C474.58,581.95 471.82,573.17 468.98,563.00 C465.38,550.11 458.77,525.96 454.53,510.30 C452.20,501.57 450.64,495.58 450.39,494.25 C449.59,489.99 448.40,490.12 447.69,494.55 C447.28,497.05 443.86,510.21 439.72,525.62 C432.84,551.02 424.12,582.22 423.61,582.73 C422.85,583.49 403.49,583.91 396.38,583.33 ZM 378.62 404.53 C369.38,401.24 363.63,390.74 365.66,380.86 L 366.70 375.78 L 344.06 352.74 C322.41,330.69 321.33,329.75 319.08,330.96 C318.66,331.18 318.18,331.37 317.66,331.51 L 313.68 331.51 C311.07,331.51 309.22,331.47 307.74,331.31 C305.34,330.77 303.05,329.92 301.32,328.83 C301.28,328.80 301.24,328.77 301.20,328.75 C297.41,326.25 294.73,322.51 293.29,318.34 C293.29,318.34 293.29,318.34 293.29,318.33 C291.20,312.22 291.79,305.18 295.56,299.82 L 295.56 299.82 L 295.56 299.82 C300.43,292.91 308.53,290.07 316.01,291.30 C321.22,292.17 326.14,295.02 329.49,299.84 C329.51,299.87 329.53,299.90 329.55,299.93 C330.93,301.93 331.72,303.54 332.20,305.62 C332.48,307.25 332.54,309.34 332.56,312.64 L 332.60 317.08 C332.44,317.74 332.22,318.24 331.94,318.57 C331.57,319.02 331.65,319.68 332.63,321.08 L 332.63 321.11 L 332.70 321.19 C334.76,324.07 340.48,329.97 353.57,343.07 L 376.48 366.00 L 379.99 365.25 C385.02,364.18 391.46,364.67 394.70,366.36 C401.61,369.97 406.00,377.61 406.00,386.01 C406.00,400.30 392.45,409.46 378.62,404.53 ZM 368.40 664.15 C368.84,663.44 368.42,663.00 367.31,663.00 C366.31,663.00 364.20,661.88 362.62,660.52 C361.04,659.16 359.30,658.31 358.77,658.64 C356.55,660.01 360.19,655.04 363.58,652.06 L 367.25 648.85 L 366.19 643.59 C366.03,642.80 365.90,642.03 365.81,641.29 L 365.81 641.03 C365.74,637.63 365.83,635.41 366.28,633.39 C367.18,630.22 369.03,627.30 371.92,624.26 C384.77,610.78 407.90,622.27 405.68,641.04 C404.96,647.16 400.40,654.17 395.17,657.37 C393.56,658.07 391.84,658.57 389.96,658.89 C386.70,659.15 382.96,658.68 381.44,657.53 C378.53,655.33 376.75,655.70 374.10,659.06 C372.78,660.73 371.11,661.87 370.40,661.60 C369.61,661.30 369.31,661.63 369.62,662.45 C369.90,663.19 369.59,664.14 368.91,664.55 C368.13,665.04 367.95,664.89 368.40,664.15 ZM 259.48 647.50 C259.40,652.24 259.29,657.52 259.15,663.00 C258.69,681.42 258.18,693.35 258.00,689.50 L 257.69 682.50 L 256.31 692.50 L 256.16 687.69 C255.99,682.65 254.07,681.89 253.92,686.81 C253.88,688.29 253.62,688.94 253.34,688.25 C253.06,687.56 252.18,687.00 251.38,687.00 C250.26,687.00 250.16,687.43 250.96,688.93 C252.75,692.27 252.12,693.81 248.45,695.02 C243.47,696.66 240.00,695.62 240.00,692.48 C240.00,691.12 239.59,690.00 239.08,690.00 C238.07,690.00 237.19,680.88 236.45,662.50 C236.18,655.90 236.31,651.03 236.74,651.67 C237.27,652.47 237.89,652.07 238.67,650.42 L 239.81 648.00 L 216.19 648.00 L 236.25 647.77 ZM 438.65 662.36 C438.29,658.15 438.00,650.52 438.00,645.40 C438.00,636.95 437.69,635.45 434.62,628.81 C432.65,624.55 428.61,618.47 424.93,614.23 C421.45,610.23 418.52,606.32 418.40,605.55 C418.10,603.50 428.55,602.61 442.52,603.48 L 454.00 604.20 L 453.93 608.35 C453.88,611.30 453.64,611.94 453.11,610.57 C452.37,608.71 452.28,608.72 450.18,610.82 C448.98,612.02 447.99,613.79 447.97,614.75 C447.95,615.71 447.49,619.88 446.95,624.00 C446.41,628.12 445.54,636.22 445.02,642.00 C443.68,657.00 442.19,665.90 440.64,668.11 C439.45,669.80 439.22,669.15 438.65,662.36 ZM 685.91 453.46 C685.48,453.32 685.19,453.14 684.98,452.92 C684.93,452.75 684.77,452.44 684.51,452.03 C684.50,452.01 684.50,451.99 684.49,451.96 C684.29,451.35 683.01,449.67 681.14,447.53 C680.62,446.89 680.07,446.22 679.50,445.54 C676.47,441.98 674.00,438.76 674.00,438.39 C674.00,438.02 681.65,438.05 691.00,438.44 C706.00,439.08 708.07,438.98 708.61,437.58 C708.94,436.71 709.69,436.00 710.28,436.00 C710.87,436.00 710.29,437.12 709.00,438.50 C707.71,439.88 707.11,441.00 707.67,441.00 C708.23,441.00 709.52,440.08 710.53,438.96 C711.54,437.85 712.94,437.15 713.63,437.41 C714.55,437.76 714.77,436.93 714.44,434.34 C714.08,431.56 714.30,430.90 715.40,431.32 C716.99,431.93 720.39,428.72 719.31,427.64 C718.92,427.26 721.92,423.61 725.96,419.54 C733.47,411.98 734.86,411.39 740.15,413.48 C742.17,414.28 741.93,416.90 739.74,418.13 C738.85,418.62 737.10,421.16 735.84,423.76 C734.58,426.37 732.53,429.77 731.27,431.33 C730.02,432.88 729.00,434.79 729.00,435.58 C729.00,436.76 727.71,437.48 726.75,436.83 C726.61,436.74 725.46,437.22 724.18,437.90 C721.41,439.39 712.75,440.21 713.56,438.91 C713.87,438.41 713.67,438.00 713.12,438.00 C711.44,438.00 709.00,442.28 709.00,445.22 C709.00,446.75 708.59,448.00 708.10,448.00 C707.60,448.00 706.73,449.35 706.15,451.00 L 705.10 454.00 L 698.97 454.00 C696.29,454.00 694.13,454.00 692.38,453.97 C689.39,453.90 687.10,453.72 685.91,453.46 ZM 607.48 589.88 C607.12,587.72 607.12,583.75 607.49,581.05 C608.21,575.84 609.13,575.40 613.93,577.96 C615.91,579.02 619.22,579.29 645.86,580.50 C660.71,581.18 667.13,581.98 666.45,583.08 C666.18,583.52 668.10,584.03 670.73,584.20 C673.35,584.38 665.60,584.87 653.50,585.29 C631.56,586.06 631.47,586.07 619.82,589.93 L 608.14 593.79 ZM 582.69 636.00 C581.69,626.92 580.42,616.20 579.86,612.16 C579.30,608.13 579.13,604.54 579.49,604.18 C579.85,603.82 582.85,603.56 586.17,603.60 C592.39,603.69 594.57,605.02 593.38,608.00 C587.48,622.83 585.92,629.02 585.23,640.50 L 584.50 652.50 ZM 749.25 412.57 C746.36,412.05 744.00,411.24 744.00,410.76 C744.00,410.28 743.58,410.14 743.08,410.45 C742.52,410.79 742.53,409.65 743.10,407.59 C743.62,405.70 743.99,403.78 743.91,403.33 C743.38,400.30 744.22,400.00 753.25,400.02 C758.34,400.02 762.05,400.36 761.50,400.77 C760.95,401.17 760.40,402.40 760.27,403.50 C760.00,405.77 759.28,411.18 759.11,412.13 C758.90,413.31 754.53,413.50 749.25,412.57 ZM 378.00 637.01 C378.00,638.10 378.13,639.12 378.37,640.06 C378.87,642.36 380.31,644.84 382.32,645.81 C382.36,645.83 382.40,645.85 382.44,645.87 C385.18,647.55 388.71,647.38 391.55,644.55 C396.61,639.49 392.99,631.00 385.77,631.00 C381.15,631.00 378.00,633.44 378.00,637.01 ZM 643.99 390.51 C648.58,385.63 645.31,377.00 638.88,377.00 C634.70,377.00 630.67,380.96 630.78,384.95 C630.99,392.20 639.17,395.64 643.99,390.51 ZM 717.08 317.08 C720.53,313.63 720.80,310.29 717.93,306.63 C716.33,304.60 714.97,304.00 712.00,304.00 C705.08,304.00 701.35,312.24 706.25,316.70 C710.72,320.76 713.30,320.85 717.08,317.08 ZM 390.81 390.96 C392.84,389.08 393.49,386.76 393.07,383.00 C392.81,380.71 388.18,377.00 385.58,377.00 C381.58,377.00 378.00,380.66 378.00,384.76 C378.00,391.91 385.76,395.67 390.81,390.96 ZM 318.25 316.80 C320.63,314.05 320.50,308.50 318.00,306.00 C313.67,301.67 305.00,305.07 305.00,311.09 C305.00,315.35 306.04,317.11 309.40,318.56 C313.06,320.15 315.84,319.59 318.25,316.80 ZM 631.24 624.34 C629.48,623.63 630.73,622.00 633.03,622.00 C634.31,622.00 634.75,622.49 634.36,623.50 C633.76,625.06 633.33,625.18 631.24,624.34 ZM 734.00 414.50 C734.72,413.64 734.81,413.00 734.23,413.00 C733.67,413.00 732.95,413.67 732.64,414.50 C732.32,415.33 732.22,416.00 732.41,416.00 C732.60,416.00 733.32,415.33 734.00,414.50 Z" fill="rgb(60,210,192)"/>
<path d="M 0.00 512.00 L 0.00 0.00 L 512.00 0.00 L 1024.00 0.00 L 1024.00 512.00 L 1024.00 1024.00 L 512.00 1024.00 L 0.00 1024.00 L 0.00 512.00 ZM 376.00 788.50 L 376.00 765.00 L 387.48 765.00 L 398.96 765.00 L 399.23 788.25 L 399.50 811.50 L 408.25 811.79 L 417.00 812.08 L 417.00 788.54 L 417.00 765.00 L 433.98 765.00 L 450.96 765.00 L 451.23 788.25 L 451.50 811.50 L 460.25 811.79 L 469.00 812.08 L 469.00 788.54 L 469.00 765.00 L 485.98 765.00 L 502.96 765.00 L 503.23 788.25 L 503.50 811.50 L 512.50 811.50 L 521.50 811.50 L 521.77 788.25 L 522.04 765.00 L 538.50 765.00 L 554.96 765.00 L 555.23 788.25 L 555.50 811.50 L 564.50 811.50 L 573.50 811.50 L 573.77 788.25 L 574.04 765.00 L 590.50 765.00 L 606.96 765.00 L 607.23 788.25 L 607.50 811.50 L 616.25 811.79 L 625.00 812.08 L 625.00 788.54 L 625.00 765.00 L 636.48 765.00 L 647.96 765.00 L 648.23 788.25 L 648.50 811.50 L 704.50 811.50 C760.44,811.50 760.51,811.50 767.50,809.17 C788.22,802.29 802.32,788.17 809.13,767.50 C811.40,760.58 811.44,759.82 811.78,704.25 L 812.12 648.00 L 788.56 648.00 L 765.00 648.00 L 765.00 636.50 L 765.00 625.00 L 788.50 625.00 L 812.00 625.00 L 812.00 616.00 L 812.00 607.00 L 788.50 607.00 L 765.00 607.00 L 765.00 590.06 L 765.00 573.12 L 788.25 573.31 L 811.50 573.50 L 811.79 564.25 L 812.08 555.00 L 788.54 555.00 L 765.00 555.00 L 765.00 538.14 L 765.00 521.28 L 788.25 521.20 L 811.50 521.12 L 811.79 512.06 L 812.08 503.00 L 788.54 503.00 L 765.00 503.00 L 765.00 486.00 L 765.00 469.00 L 788.50 469.00 L 812.00 469.00 L 812.00 460.00 L 812.00 451.00 L 788.50 451.00 L 765.00 451.00 L 765.00 434.02 L 765.00 417.04 L 788.25 416.77 L 811.50 416.50 L 811.79 407.75 L 812.08 399.00 L 788.54 399.00 L 765.00 399.00 L 765.00 387.50 L 765.00 376.00 L 788.56 376.00 L 812.12 376.00 L 811.76 320.25 C811.35,258.34 811.51,259.93 804.38,245.75 C799.45,235.95 788.13,224.59 778.41,219.70 C765.02,212.97 765.37,213.00 703.55,213.00 L 647.89 213.00 L 648.00 224.25 C648.06,230.44 648.09,240.79 648.06,247.25 L 648.00 259.00 L 636.50 259.00 L 625.00 259.00 L 625.00 236.11 C625.00,210.12 625.70,212.00 616.00,212.00 C606.30,212.00 607.00,210.12 607.00,236.11 L 607.00 259.00 L 590.00 259.00 L 573.00 259.00 L 573.00 236.00 C573.00,218.31 572.71,212.98 571.75,212.92 C571.06,212.87 569.38,212.67 568.00,212.47 C566.62,212.27 563.14,212.36 560.25,212.67 L 555.00 213.23 L 555.00 236.12 L 555.00 259.00 L 538.00 259.00 L 521.00 259.00 L 521.00 236.09 L 521.00 213.18 L 516.98 212.50 C514.77,212.12 510.72,212.13 507.98,212.50 L 503.00 213.19 L 503.00 236.09 L 503.00 259.00 L 486.00 259.00 L 469.00 259.00 L 469.00 236.11 L 469.00 213.22 L 465.41 212.55 C463.44,212.18 459.39,212.18 456.41,212.55 L 451.00 213.23 L 451.00 236.12 L 451.00 259.00 L 434.00 259.00 L 417.00 259.00 L 417.00 236.13 L 417.00 213.26 L 413.25 212.72 C411.19,212.42 408.15,212.29 406.50,212.43 C404.85,212.57 402.49,212.76 401.25,212.84 L 399.00 213.00 L 399.00 236.00 L 399.00 259.00 L 387.50 259.00 L 376.00 259.00 L 376.00 235.97 L 376.00 212.94 L 318.75 213.22 L 261.50 213.50 L 254.02 216.23 C239.10,221.67 226.32,233.09 219.26,247.29 C213.14,259.57 213.03,260.89 213.01,321.25 L 213.00 376.00 L 236.00 376.00 L 259.00 376.00 L 259.00 387.50 L 259.00 399.00 L 236.02 399.00 L 213.04 399.00 L 212.47 401.28 C212.15,402.54 212.03,406.47 212.20,410.03 L 212.50 416.50 L 235.75 416.77 L 259.00 417.04 L 259.00 434.02 L 259.00 451.00 L 235.36 451.00 L 211.72 451.00 L 212.36 457.15 C212.71,460.53 213.00,464.58 213.00,466.15 L 213.00 469.00 L 236.00 469.00 L 259.00 469.00 L 259.00 486.00 L 259.00 503.00 L 236.11 503.00 C216.15,503.00 213.14,503.20 212.61,504.58 C211.83,506.61 211.84,515.82 212.63,518.75 L 213.23 521.00 L 236.12 521.00 L 259.00 521.00 L 259.00 537.98 L 259.00 554.96 L 235.75 555.23 L 212.50 555.50 L 212.21 564.14 L 211.93 572.79 L 227.65 573.52 C236.30,573.93 246.89,574.02 251.19,573.72 L 259.00 573.19 L 259.00 590.08 L 259.00 606.96 L 235.75 607.23 L 212.50 607.50 L 212.21 616.25 L 211.92 625.00 L 235.44 625.00 L 258.96 625.00 L 259.53 627.25 C259.83,628.49 259.96,633.55 259.79,638.50 L 259.50 647.50 L 236.25 647.77 L 213.00 648.04 L 213.00 703.31 C213.00,764.78 212.96,764.35 219.74,778.00 C228.11,794.84 247.72,808.81 266.50,811.30 C268.15,811.52 293.46,811.77 322.75,811.85 L 376.00 812.00 L 376.00 788.50 Z" fill="rgb(254,254,254)"/>
</g>
</svg>